<svg xmlns="http://www.w3.org/2000/svg" width="1618" height="2042" viewBox="0 0 1618 2042">
  <defs>
    <style>
      .cls-1 {
        fill: #fff;
        fill-rule: evenodd;
      }
    </style>
  </defs>
  <path id="Color_Fill_1" data-name="Color Fill 1" class="cls-1" d="M1211,389h273Q1549,1213.418,1614,2038H4Q66.494,1213.585,129,389H407c-1.066-54.339,15.1-102.81,32-142C500.413,104.6,693.223-50.047,916,18,1063.54,63.067,1209.49,200.687,1211,389Zm-717,0h630c0.56-45.034-14.42-85.427-30-116C1038.9,164.887,901.8,49.041,725,102,612.61,135.665,494.2,245.7,494,389ZM212,476Q155.505,1213.425,99,1951H1523q-55.995-737.43-112-1475H1212q-0.495,142.986-1,286h-86V476H493V762l-87-1V476H212Z"/>
</svg>
