<svg xmlns="http://www.w3.org/2000/svg" width="2482" height="907" viewBox="0 0 2482 907">
  <defs>
    <style>
      .cls-1 {
        fill: #000;
        fill-rule: evenodd;
      }
    </style>
  </defs>
  <path id="Color_Fill_1" data-name="Color Fill 1" class="cls-1" d="M399,0C522.5-.946,633.888,67.084,663,160c5.011,15.994,10.538,40.4,7,62q-2,17.5-4,35c21.321,3.415,69.138,25.841,69,50-11.486,23.387-52.945,19.619-86,18,6.592,26.087-8.874,63.761,6,80l18,11c20.466,16.106,45.924,46.608,55,73l128-30c17.214-4.309,37.53-14.019,61-10l62,16v4c-76.2-1.158-122.983,14.548-179,32l-65,19c-3.235,16.836-26.809,34.26-42,40,1.679,14.049,10.671,40.332,19,48,17.977-5.094,33.022,1.378,41,12,16.233,21.614,8.12,59.006,15,91,7.776,36.159,25.231,63.419,35,95,5.807,18.773-3.068,38.676-14,47-61.719,47-114.266,10.857-169-17-14.053-7.152-45.3-29.391-63-23l-10,17,2,3c35.721,16.335-6.574,48.044-22,57-69.375,40.279-126.835,3.579-159-45-7.824-11.817-18.264-25.739-21-42-17.506-.174-38.949-3.87-47-14l1-3c14.073-.454,22.864-9.557,28-19-84.6,14.586-55.547-30.179-104-55-22.979-11.772-60.684-8.979-87-17C88.607,679.945,2.642,615.222,0,559c13.3-23.948,117.733-16.186,155-15-13.091-68.808-5.247-130.068,8-196,24.5-121.933,34.838-244.028,117-307,22.473-17.224,47.584-29.493,80-37ZM596,246c4.118-83.755-9.333-143.823-81-158-16.086-3.182-39.715-2.949-54,2-56.358,19.525-69.4,103.072-45,167,7.069,18.519,13.22,35.406,30,44C489.911,277.785,529.738,247.472,596,246ZM518,104l7,1c8.226,4.407,16.352,26.627,16,36-6.655,7.789-23.638,8.184-34,12q12.5,42.5,25,85c-5.037,4.989-32.016,21.066-42,15-6.7-4.07-8.2-20.974-11-29l-29-89C465.942,117.94,497.846,116.9,518,104Zm74,225c-21.165,9.719-44.73,12.152-65,21l-61,32v1l90,28v7h-2l-13-2c2.793,14.014-3.388,34.349-7,46-10.738,34.642-29.649,60.32-62,73-63.373,24.838-129.139-11.574-140-64l-30,23c-2.557-1.632-2.424-1.232-4-4-2.063-8.623,8.881-29.43,13-38l-14,1c-3.758,23.386-15.105,50.343-25,70,15.474,13.507,44.194,19.209,61,25,2.621,0.9,6.379,7.368,10,9l75,33c9.652,4.177,41.333,24.753,53,22l115-67c-29.783,6.169-56.6-11.391-46-43,12.918-38.514,37.416-74.255,65-99-8.758-22.941,19.855-30.382,24-6l10,1v-1c-5.359-18.048-.786-37.8-18-45l-26,47c-2.7-1.6-1.377-.339-3-3-10.5-16.822-.227-48.673,6-66v-1h-6Zm24,67,2,3C616.741,395.977,618.018,397.8,616,396ZM480,412c-30.342,4.5-49.517,7.561-71,16-22.6,8.878-41.877,23.136-63,32,13.956,54.111,80.373,87.9,138,52,31.877-19.856,39.19-53.075,47-98Zm-48,34c10.556-.092,16.824,3.8,20,11,6.509,10.369-2.079,22.151-10,25-19.391,5.212-28.015-10.271-23-27Zm1,14v6c4.912-.685,3.671-0.221,6-3l-1-3h-5Zm192,66-20,12v27L484,652l10,26c16.076-.181,70.9-23.16,80-32q-5.5-16-11-32h1q0.5,1,1,2c4.6,7.89,6.216,23.293,14,28,7.561,2.229,61.958-21.656,70-27-0.493-12.578-6.707-22.253-11-32l4,1c1.4,9.275,6.526,27.167,17,28l33-13c-1.929-13.887-14.055-29.8-11-41,1.661-10.613,13.233-15.8,22-19v-1C669.662,540.432,652.993,526.878,625,526ZM166,547c-1.081,4.448-1.492,5.057-5,7-7.842,5.76-30.69,1-45,1-38.171,0-73.5,2.184-104,7,26.545,56.624,65.047,101.089,128,121,29.393,9.3,69.9,5.778,94,20,11.725,6.92,23.892,17.465,31,29,4.924,7.99,6.369,17.888,14,23,19.487,13.054,46.539-6.112,61,6,12.7-6.281,18.173-19.225,29-25,20.411,50.759,60.342,84.321,136,72h40c6.49-1.819,6.2-11.087,18-9,52.121,9.222,91.268,45.173,137,63,26.771,10.435,72.4-6.782,85-22,6.975-8.425,9-23.751,4-36-12.576-30.839-26.218-59.852-34-97-4.938-23.573,1.855-61.135-10.919-77.538S704.664,626.6,696,606c-14.38,5.439-108.479,39.758-113,47q0.5,5,1,10h-3l-4-7c-18,.533-63.49,21.111-77,30,0.85,17.046,11.342,26.169,14,42l-4,3h-1c0.6-16.145-5.228-33.108-16-38-12.048-7.221-39.145,7.218-43,16-10.906,18.6,11.789,38.48,23,44v1c-28.088,2.934-33.8-30.926-38-54,17.029,2.064,42.624-10.794,55-19-0.466-8.93-4.98-20.971-10-26-4.766,3.35-10.788,9.511-21,7L356,595c9.491,24.319,11.816,81.982-3,103l-75-57q-5.5-14.5-11-29A134.448,134.448,0,0,0,166,547Zm130,8,13,18,6-6h-2ZM52,588c23.936,17.851,43.472,33.163,80,40,35.832,6.707,64.986-10.864,98-5,21.213,3.768,33.287,15.252,48,25v1l-4,4c-22.825-17.516-41.47-26.992-79-21,11.276,17.652,31.681,37.9,55,43,15.679,3.431,24.455-6.829,32-3v1c-38.4,31.871-76.563-24.692-95-40-47.213,9.77-128.557-12.5-138-43Zm355,72c4.147,2.576,6.035,8.418,7,14l-15-4-1-2v-3Zm66,95s11.831,5.889,41-26-1,2-1,2,27.077-41.76,67-64,103.222-50.091,146-45c1.01,0.12,13,5,13,5s-32.1-6.691-88,14-82.343,33.859-107,63S504.768,755.611,473,755Z"/>
  <path id="Color_Fill_3" data-name="Color Fill 3" class="cls-1" d="M1189,540h-32c-1.91,13.557-2.63,34.533,1,47,1.96,6.74,7.29,11.535,8,17-17.94,23.12-10.23,106.754-10,148h-38c-4.22-5.857-11.48-14.671-19-17q0.495-63.493,1-127-5.505-13-11-26c9.14-7.688,10.33-25.048,10-42h-16c-4.22-5.857-11.48-14.671-19-17q1.005-20,2-40h106c2.74,8.76,11.81,13.329,17,20v37Zm17-57h105c3.3,10.228,15.46,12.61,18,23,8.76,35.873-9.57,67.237,9,95l-9,16V751h-38c-4.22-5.857-11.48-14.671-19-17V622h-10V751h-38c-4.22-5.857-11.48-14.671-19-17,0.43-49.615,7.81-116.547-9-150C1208.75,560.022,1205.27,518.353,1206,483Zm273,78h-38c-5.44-7.017-15.79-12.35-19-21h-9q-0.495,76.992-1,154h10V672h40c2.74,8.76,11.81,13.329,17,20v59H1374l-18-17V638c6.22-21.081-1.96-44.179-11-54,9.13-12.882,14.77-37.742,11-63V486c0.67-1,1.33-2,2-3h104c2.74,8.76,11.81,13.329,17,20v58Zm140,191H1514l-18-17V639c6.21-21.033-2.04-45.019-11-55,20.82-29.9-.78-72.13,13-101h104c2.74,8.76,11.81,13.329,17,20,0.04,33.515-4.05,78.059,11,99C1609.46,632.1,1618.8,702.942,1619,752Zm30-269h107c2.74,8.76,11.81,13.329,17,20v57h-38c-5.93-8.346-15-20.879-29-21v26c53.51-2.074,53.78,1.466,78,35l-12,24q0.495,63.993,1,128H1668c-4.22-5.857-11.48-14.671-19-17V672h40c2.04,7.113,14.44,20.526,22,22,1.67-.333,3.33-0.667,5-1V622h-46c-9.79-12.99-22.06-23.395-32-37q5.505-9.5,11-19V483Zm267,57h-32c-1.91,13.557-2.63,34.533,1,47,1.96,6.74,7.29,11.535,8,17-17.94,23.12-10.23,106.754-10,148h-38c-4.22-5.857-11.48-14.671-19-17q0.495-63.493,1-127-5.505-13-11-26c9.14-7.688,10.33-25.048,10-42h-16c-4.22-5.857-11.48-14.671-19-17q1.005-20,2-40h106c2.74,8.76,11.81,13.329,17,20v37Zm17-57h105c3.3,10.228,15.46,12.61,18,23,8.76,35.873-9.57,67.237,9,95l-9,16V751h-38c-4.22-5.857-11.48-14.671-19-17V622h-10V751h-38c-4.22-5.857-11.48-14.671-19-17,0.43-49.615,7.81-116.547-9-150C1935.75,560.022,1932.27,518.353,1933,483Zm217,0h39c2.74,8.76,11.81,13.329,17,20,1.01,32.923-4.51,76.533,10,98q-4.995,9-10,18V752h-37c-4.22-5.857-11.48-14.671-19-17,0.39-34.765,7.29-141.723-9-154h-1V752h-38c-4.22-5.857-11.48-14.671-19-17,0.28-37.578,6.35-99.952-1-131l-9-21c15.32-23.164,4.9-64.618,11-99,8.82-2.589,30.78-2.445,38,1,2.86,9.611,14.99,12.061,18,20,5.34,14.1-6.85,16.884,9,27h1V483Zm207,268H2242c-4.22-5.857-11.48-14.671-19-17q0.495-18.5,1-37c3.56-1.309,7.1-1.606,9-5q1.005-41.5,2-83c-2.17-11.807-10-18.019-10-28,22.57-44.113-8.61-53.063,0-98,19.63-.229,102.67-5.361,113,2,32.7,23.6,11.44,44.617,19,89,1.53,8.974,9.34,26.366,8,29C2351.19,638.689,2356.92,702.73,2357,751ZM1653,486v80q-4.995,9.5-10,19,4.995,8,10,16h67q-0.495,48.5-1,97h-1l-33-1V676h-32v55h99V657c-2.26-15.442-5.41-42.424,0-57q5.505-8,11-16c-2.98-4.81-5.95-12.127-11-15-17.14-9.4-47.32,3.877-67-2V518l35,1v20h32V486h-99Zm-584,1q-0.495,16-1,32l35,1q-1.005,25-2,50c-1.76,6.618-6.43,11.449-7,17,17.41,19.59,9.28,105.02,9,144h32c-0.49-41.225-7.86-125.242,11-147-11.69-15.788-10.62-38.288-10-65h32V487h-99Zm140,243h32q0.495-64.494,1-129h33V730h33c-0.41-46.459-7.08-114.114,9-146-13.08-23.336-9.19-61.142-9-97l-99,1c0.26,28.142,5.81,78.839-9,96C1216.59,616.334,1209.18,681.462,1209,730Zm150-243c0.53,34.518,5.33,75.765-9,97,17.42,33,9.22,95.682,9,146h99V675h-32v22h-35q0.495-88.99,1-178h34v21h32V487h-99Zm140,244h99c-0.3-38.947-6.77-94.621,1-128l9-21c-16.68-13.722-10.16-68.431-10-95l-99,1c0.52,33.952,5.3,74.814-9,96q4.995,9.5,10,19Q1499.505,666.993,1499,731Zm297-244q-0.495,16-1,32l35,1q-1.005,25-2,50c-1.76,6.618-6.43,11.449-7,17,17.41,19.59,9.28,105.02,9,144h32c-0.49-41.225-7.86-125.242,11-147-11.69-15.788-10.62-38.288-10-65h32V487h-99Zm140,243h32q0.495-64.494,1-129h33V730h33c-0.41-46.459-7.08-114.114,9-146-13.08-23.336-9.19-61.142-9-97l-99,1c0.26,28.142,5.81,78.839-9,96C1943.59,616.334,1936.18,681.462,1936,730Zm151-243c-1.44,30.584,6.22,78.281-10,97,19.08,28.67,10.19,101.839,10,147h32V555l3,1q16.005,16.5,32,33-0.495,70.993-1,142h32c-0.44-47.834-6.55-114.895,10-147-14.69-23.61-5.81-63.1-10-97h-32v54c-14.84-10.46-39.45-26.933-34-54h-32Zm150,212h-10v31h109c-0.47-44.77-8.87-117.314,9-147-16.57-19.456-5.36-65.867-9-96H2228c-1.22,7.561-3.28,26.325,1,32h8c0.55,26.688,2.46,47.567-9,63,2.44,10.211,8.93,15.1,11,27Q2238,654,2237,699ZM1241,519h34v49h-34V519Zm325,0V698h-34q-0.495-89.491-1-179h35Zm402,0h34v49h-34V519Zm302,0,35,1q-0.495,88.991-1,178h-34V519ZM1262,540v25l10-1q-0.495-12-1-24h-9Zm291,0V694h9V540h-9Zm436,0v25l10-1q-0.495-12-1-24h-9Zm302,0V694h10V540h-10Zm-909,43V706h52V684l15,1v36h-82q0.495-60.995,1-122-4.005-8-8-16h22Zm878-1V705l51,1q0.495-61.494,1-123l22,1c-16.47,28.859-7.18,94.322-7,137h-91V706h9c0.43-40.8,6.85-94.835-7-123v-1h22ZM1126,721h-15c0.41-42.08,7.71-106.811-7-137v-1l30,1C1118.79,613.751,1125.81,678.023,1126,721Zm173,0h-15V591h-51q-0.495,64.993-1,130h-14c0.44-43.627,7-107.294-8-138h97C1290.15,610.59,1298.82,679.626,1299,721Zm223-138V706l53,1V583h21c-15.19,31.535-7.14,93.252-7,138h-81c0.43-44.371,8.06-107.059-7-138h21Zm220,138h-81q0.495-18.5,1-37l14,1v21l53,1V591c-20.75.271-57.59,5.5-74-2-0.67-1.667-1.33-3.333-2-5v-1h98C1735.06,613.107,1741.86,676.676,1742,721Zm111,0h-15c0.41-42.08,7.71-106.811-7-137v-1l30,1C1845.79,613.751,1852.81,678.023,1853,721Zm173,0h-15V591h-51q-0.495,64.993-1,130h-14c0.44-43.627,7-107.294-8-138h97C2017.15,610.59,2025.82,679.626,2026,721Zm83-138V721h-14c0.42-42.115,9.23-109.686-8-136,0.33-.667.67-1.333,1-2h21Zm53,0h22c-16.85,27.59-8.18,96.626-8,138h-15Q2161.5,652.007,2162,583Z"/>
  <path id="Color_Fill_2" data-name="Color Fill 2" class="cls-1" d="M2098,434V418l-139,17q-4.005-7.5-8-15l-134,14q-1.005-14-2-28-12,14-24,28H1661l-3-2q-8.505-10.5-17-21l-197,23v-9l-75,11q-3.495-26-7-52h-21q-7.5,27-15,54l-122-21q-4.005,7.5-8,15l-88-1q-1.995-4.5-4-9v2c-1.33,2.666-2.67,5.334-4,8l-86,2v-2L951,183l122-10q9,37,18,74l36-35,3,2q10.005,16,20,32h2q14.505-36,29-72c20.51,4.279,116.34,29.725,128,25l9-17,90-8q14.505,31.5,29,63-1.5-33.5-3-67l135,15v7q-3.495,53.994-7,108,22.005-2.5,44-5V176h145v14h57V177c17.29-.161,97.44-9.478,104-4q6,27.5,12,55,36.99-27,74-54l88,6c30.96-.031,73.12-8.255,108-9q1.995,9,4,18V158q35.49,6,71,12v57q24.495-26.5,49-53h90q36.99,39,74,78c-1.33,1.333-2.67,2.667-4,4q-19.995,25.5-40,51c0.67,1,1.33,2,2,3l27,20q-27,51.5-54,103H2297q-28.995-23-58-46,3.495,15.5,7,31h-2Zm129-242c0.53,24.46-5.61,32.421-11,48l12,3c8.71-20.188,13.26-14.782,13-49h-2Zm-763,9q2.505,87.991,5,176v-2q-39.99-85.491-80-171l-53,5L1227,392l79,14q7.5-26,15-52l66,2q3.495,24,7,48h1l76-12v11l152-18q-4.005-31.5-8-63l-84,10v-3q4.005-59.495,8-119Zm373,3q3.495,99.491,7,199l86-9q-19.995-96.49-40-193h-12Zm281,0q3.495,99.491,7,199l87-9v-1q-20.505-95.991-41-192Zm-6,76-81-1q-2.505,27-5,54h8l31-3c-0.33,3-.67,6-1,9l-51,6c-14.1-41.495-21.41-32.84,0-77l28-8q10.005,5,20,10,22.005-12.5,44-25v-3l-27-35-70-5q-28.995,21-58,42-7.5,39-15,78,20.505,41.5,41,83l136-18V280Zm217-78q-36,40.5-72,81c0.33,0.667.67,1.333,1,2l76,44q-4.005,6.5-8,13h-1l-52-30v2q-13.005,21-26,42c0.67,1,1.33,2,2,3q29.49,23,59,46h88q17.505-34,35-68-36.495-26-73-52v-1q4.995-6.5,10-13l42,26q16.995-21.5,34-43-24.495-26-49-52h-66ZM987,208q24.5,98.49,49,197l46-1q13.995-27,28-54h1q9,27,18,54c15.2,0.271,40.56,3.286,52-2q42.495-89.991,85-180-33.99-7.5-68-15-20.505,49.5-41,99c-0.33-.667-0.67-1.333-1-2q-16.5-24-33-48-22.005,22-44,44c-0.67-.333-1.33-0.667-2-1q-13.005-48-26-96Zm647-4V357q20.505,24.5,41,49h103q24-27.5,48-55V219h-84v1c2.96,10.686,11.36,94.069,8,98q-15.495,11.5-31,23h-1q1.995-68.493,4-137h-88Zm581,66,3,14q4.005-3.5,8-7c0.33-.667.67-1.333,1-2Zm-866,5,22,1q4.5,14,9,28l-42-1v-1Q1343.505,288.5,1349,275Zm871,20q4.005,19,8,38h1v-2q7.005-11.5,14-23Q2231.5,301.5,2220,295Z"/>
</svg>
